<svg width="296" height="103" fill="none" xmlns="http://www.w3.org/2000/svg">
    <path fill="#008472" d="M0 10h200v80H0z"/>
    <path d="M8.379 56.183a5.668 5.668 0 0 1-5.66-5.66 5.656 5.656 0 0 1 5.66-5.66 5.656 5.656 0 0 1 5.66 5.66 5.668 5.668 0 0 1-5.66 5.66Zm0-9.21a3.562 3.562 0 0 0-3.55 3.55 3.562 3.562 0 0 0 3.55 3.55 3.562 3.562 0 0 0 3.55-3.55 3.562 3.562 0 0 0-3.55-3.55Zm51.907 4.745c.088.545.124 1.16.124 1.828l-.036 1.002c0 .264-.123.387-.386.387H49.792c-.105 0-.158.052-.158.158.07.72.158 1.213.3 1.459.526 1.564 1.792 2.355 3.814 2.373 1.476 0 2.654-.615 3.515-1.828.088-.123.194-.194.334-.194a.31.31 0 0 1 .229.106l2.021 1.67c.193.158.229.334.105.527-.667.95-1.581 1.688-2.706 2.215-1.108.527-2.356.791-3.71.791-1.687 0-3.146-.387-4.341-1.143-1.178-.755-2.04-1.828-2.584-3.199-.492-1.177-.756-2.795-.756-4.886 0-1.266.123-2.286.387-3.059.44-1.53 1.248-2.725 2.443-3.586 1.213-.896 2.672-1.336 4.377-1.336 4.271-.017 6.68 2.233 7.224 6.715Zm-7.242-3.463c-.808 0-1.476.211-2.021.615-.527.387-.897.95-1.108 1.67-.123.37-.21.844-.263 1.442-.035.105 0 .158.123.158h6.61c.105 0 .157-.053.157-.158-.035-.545-.105-.95-.193-1.23-.193-.792-.58-1.39-1.178-1.829-.545-.457-1.248-.668-2.127-.668Zm20.918-8.771c0-.106.035-.194.106-.264a.412.412 0 0 1 .299-.123h3.005c.106 0 .194.035.264.123.088.07.123.158.123.264v22.042a.415.415 0 0 1-.123.3.358.358 0 0 1-.264.105h-3.005a.477.477 0 0 1-.3-.106.478.478 0 0 1-.105-.299v-.984c0-.07-.017-.105-.07-.123-.035-.017-.088 0-.123.07-.95 1.125-2.197 1.688-3.744 1.688-1.547 0-2.848-.404-3.92-1.213s-1.828-1.916-2.32-3.357c-.387-1.213-.58-2.584-.58-4.078 0-1.547.193-2.866.562-3.973.475-1.442 1.248-2.549 2.32-3.358 1.072-.808 2.408-1.212 4.008-1.212 1.494 0 2.725.545 3.691 1.634.036.036.088.07.123.07a.148.148 0 0 0 .07-.122v-7.084h-.017Zm-.44 17.859c.493-.897.757-2.145.757-3.78 0-1.687-.264-2.988-.809-3.884-.58-.95-1.406-1.442-2.478-1.442-1.108 0-1.987.457-2.602 1.372-.65.949-.984 2.285-.984 3.972 0 1.53.263 2.777.79 3.744.616 1.037 1.53 1.565 2.778 1.565 1.072.017 1.933-.492 2.549-1.547Zm18-11.69c0-.105.036-.193.106-.263a.412.412 0 0 1 .299-.123h2.97c.106 0 .194.035.264.123.088.07.123.158.123.264v15.872a.415.415 0 0 1-.123.3.358.358 0 0 1-.263.105h-2.971a.477.477 0 0 1-.299-.106.478.478 0 0 1-.105-.299v-1.054c0-.07-.018-.106-.07-.123-.036-.018-.089 0-.124.07-.896 1.16-2.232 1.723-4.007 1.723-1.653 0-3.041-.475-4.166-1.442-1.108-.949-1.67-2.32-1.67-4.078V45.636c0-.105.035-.193.105-.264a.411.411 0 0 1 .299-.123h3.006c.105 0 .193.035.263.123.088.07.123.159.123.264v9.914c0 1.02.264 1.828.791 2.443.545.615 1.301.914 2.25.914.985 0 1.758-.298 2.356-.914.58-.615.879-1.424.879-2.443v-9.896h-.035Zm15.768 16.524c-1.635 0-3.058-.317-4.307-.95-1.23-.65-2.197-1.546-2.865-2.706-.668-1.16-1.002-2.496-1.002-4.008v-8.05c0-1.53.334-2.866 1.002-4.009.668-1.16 1.635-2.039 2.865-2.672 1.231-.632 2.672-.949 4.307-.949 1.6 0 3.024.3 4.272.914 1.23.615 2.197 1.46 2.865 2.584.668 1.108 1.002 2.39 1.002 3.85 0 .105-.035.21-.123.299a.36.36 0 0 1-.264.105l-3.006.158c-.264 0-.387-.123-.387-.351 0-1.283-.404-2.32-1.212-3.094-.791-.79-1.829-1.178-3.164-1.178-1.319 0-2.391.387-3.2 1.178-.808.791-1.213 1.81-1.213 3.094v8.279c0 1.266.405 2.285 1.213 3.059.809.79 1.864 1.177 3.2 1.177 1.318 0 2.373-.386 3.164-1.142.808-.791 1.212-1.81 1.212-3.094 0-.246.123-.352.387-.352l3.006.123a.36.36 0 0 1 .264.106c.088.07.123.14.123.228 0 1.477-.334 2.778-1.002 3.92-.668 1.108-1.635 1.97-2.865 2.584-1.231.598-2.655.897-4.272.897Zm19.828-17.191c1.758 0 3.164.527 4.201 1.564 1.072 1.037 1.6 2.46 1.6 4.272v10.704a.415.415 0 0 1-.123.3.359.359 0 0 1-.264.105h-3.006a.479.479 0 0 1-.299-.106.479.479 0 0 1-.105-.299v-9.914c0-1.002-.281-1.81-.844-2.408-.562-.633-1.318-.949-2.25-.949-.931 0-1.687.299-2.285.914-.562.615-.844 1.406-.844 2.408v9.95a.41.41 0 0 1-.123.298.356.356 0 0 1-.263.106h-3.006a.477.477 0 0 1-.299-.106.479.479 0 0 1-.105-.299V39.484c0-.106.035-.194.105-.264a.411.411 0 0 1 .299-.123h3.006c.105 0 .193.035.263.123.088.07.123.158.123.264v7.207c0 .07.018.105.071.123.035.017.07 0 .105-.07.897-1.16 2.25-1.758 4.043-1.758Zm23.678 6.732c.088.545.123 1.16.123 1.828l-.035 1.002c0 .264-.124.387-.387.387h-10.195c-.106 0-.159.052-.159.158.071.72.159 1.213.299 1.459.528 1.564 1.793 2.355 3.815 2.373 1.476 0 2.654-.615 3.515-1.828.088-.123.194-.194.334-.194.088 0 .158.036.229.106l2.021 1.67c.194.158.229.334.106.527-.668.95-1.582 1.688-2.707 2.215-1.108.527-2.356.791-3.709.791-1.688 0-3.147-.387-4.342-1.143-1.178-.755-2.039-1.828-2.584-3.199-.492-1.177-.756-2.795-.756-4.886 0-1.266.123-2.286.387-3.059.439-1.53 1.248-2.725 2.443-3.586 1.213-.896 2.672-1.336 4.377-1.336 4.272-.017 6.68 2.233 7.225 6.715Zm-7.242-3.463c-.809 0-1.477.211-2.022.615-.527.387-.896.95-1.107 1.67-.123.37-.211.844-.264 1.442-.035.105 0 .158.123.158h6.609c.106 0 .159-.053.159-.158-.036-.545-.106-.95-.194-1.23-.193-.792-.58-1.39-1.178-1.829-.544-.457-1.248-.668-2.126-.668Zm17.771 13.922c-1.67 0-3.111-.422-4.342-1.266-1.213-.861-2.057-2.039-2.549-3.48-.351-.985-.527-2.285-.527-3.92 0-1.565.176-2.848.527-3.85.457-1.441 1.301-2.566 2.514-3.392 1.23-.844 2.689-1.266 4.377-1.266 1.687 0 3.164.422 4.43 1.266 1.265.843 2.091 1.916 2.513 3.199.106.351.194.703.229 1.037v.07c0 .211-.123.352-.352.387l-2.935.422h-.071c-.193 0-.334-.105-.386-.334a1.04 1.04 0 0 0-.036-.264c-.035-.175-.087-.334-.123-.457-.193-.615-.58-1.107-1.177-1.494-.58-.387-1.284-.58-2.092-.58-.826 0-1.529.211-2.127.65-.563.405-.949.985-1.143 1.723-.211.703-.334 1.67-.334 2.9 0 1.196.106 2.163.299 2.9a3.528 3.528 0 0 0 1.178 1.829c.562.44 1.266.65 2.127.65.826 0 1.529-.21 2.127-.615.615-.44 1.002-1.002 1.178-1.723a.432.432 0 0 0 .035-.158.152.152 0 0 0 .035-.105c.07-.264.211-.37.457-.334l2.935.457c.106.017.194.07.264.158.088.07.123.158.106.299-.071.351-.123.597-.159.756-.404 1.388-1.248 2.496-2.513 3.322-1.301.809-2.778 1.213-4.465 1.213Zm10.758-.264a.477.477 0 0 1-.299-.105.474.474 0 0 1-.106-.3V39.485c0-.106.035-.194.106-.264a.411.411 0 0 1 .299-.123h3.005c.106 0 .194.035.264.123.088.07.123.158.123.264v11.76c0 .07.018.105.07.122.036.018.088 0 .124-.07l5.273-5.836c.158-.158.316-.228.492-.228h3.463c.211 0 .334.07.334.228 0 .07-.035.158-.106.264l-4.148 4.957c-.07.07-.07.14-.035.228l4.887 10.53c.035.087.07.158.07.193 0 .176-.123.264-.352.264h-3.164a.477.477 0 0 1-.457-.3l-3.55-8.278a.15.15 0 0 0-.124-.07c-.035-.018-.07-.018-.105.034l-2.602 3.006c-.035.088-.07.158-.07.229v5.01a.41.41 0 0 1-.123.298.357.357 0 0 1-.264.106h-3.005v-.018ZM18.469 64.937a5.9 5.9 0 0 1-3.71-1.3c-2.53-2.04-2.935-5.766-.896-8.315l13.729-17.033c2.039-2.532 5.765-2.936 8.296-.897 2.532 2.04 2.936 5.766.897 8.297L23.057 62.722a5.842 5.842 0 0 1-4.588 2.215Zm13.728-26.191c-.95 0-1.898.422-2.549 1.213L15.92 56.992a3.287 3.287 0 0 0 .492 4.605 3.287 3.287 0 0 0 4.605-.492l13.729-17.033a3.287 3.287 0 0 0-.492-4.605 3.228 3.228 0 0 0-2.057-.721Z" fill="#fff"/>
</svg>
