<svg width="48" height="55" viewBox="0 0 48 55" fill="none" xmlns="http://www.w3.org/2000/svg">
  <path d="M6.00033 54.1693C4.53366 54.1693 3.2781 53.647 2.23366 52.6026C1.18921 51.5582 0.666992 50.3026 0.666992 48.8359V6.16927C0.666992 4.7026 1.18921 3.44705 2.23366 2.4026C3.2781 1.35816 4.53366 0.835938 6.00033 0.835938H27.3337L43.3337 16.8359V28.4359C42.4892 28.1248 41.6225 27.8915 40.7337 27.7359C39.8448 27.5804 38.9337 27.5026 38.0003 27.5026V19.5026H24.667V6.16927H6.00033V48.8359H22.9337C23.2892 49.8582 23.7337 50.8137 24.267 51.7026C24.8003 52.5915 25.4225 53.4137 26.1337 54.1693H6.00033ZM32.4003 52.8359L28.667 49.1026L34.267 43.5026L28.667 37.9026L32.4003 34.1693L38.0003 39.7693L43.6003 34.1693L47.3337 37.9026L41.8003 43.5026L47.3337 49.1026L43.6003 52.8359L38.0003 47.3026L32.4003 52.8359Z" fill="currentColor"/>
</svg>
